<svg width="768" height="400" viewBox="0 0 768 400" fill="none" xmlns="http://www.w3.org/2000/svg">
<rect width="768" height="400" fill="white"/>
<g clip-path="url(#clip0_6_4)">
<path d="M458.176 286.573H457.041V285.941H460.096V286.573H458.969V289.728H458.176V286.573ZM464.271 286.738H464.253L463.128 289.728H462.614L461.496 286.738H461.482V289.728H460.735V285.941H461.835L462.871 288.623L463.904 285.941H465V289.728H464.27V286.738H464.271Z" fill="#E11F21"/>
<path d="M356.561 209.136C356.561 209.136 348.663 213.709 362.181 215.256C378.558 217.116 386.928 216.849 404.975 213.448C404.975 213.448 409.72 216.411 416.346 218.976C375.889 236.241 324.784 217.976 356.561 209.136ZM351.617 186.607C351.617 186.607 342.759 193.135 356.287 194.529C373.781 196.325 387.597 196.473 411.503 191.889C411.503 191.889 414.809 195.227 420.009 197.052C371.094 211.294 316.611 198.175 351.617 186.607Z" fill="#0B6FB6"/>
<path d="M393.294 148.391C403.262 159.818 390.674 170.101 390.674 170.101C390.674 170.101 415.986 157.091 404.362 140.799C393.505 125.605 385.179 118.056 430.252 92.0283C430.252 92.0283 359.502 109.622 393.294 148.391Z" fill="#E11F21"/>
<path d="M446.801 225.799C446.801 225.799 452.645 230.594 440.365 234.304C417.012 241.347 343.17 243.474 322.656 234.584C315.282 231.39 329.111 226.958 333.461 226.028C337.997 225.048 340.589 225.23 340.589 225.23C332.389 219.478 287.584 236.525 317.831 241.407C400.318 254.726 468.197 235.409 446.801 225.799ZM360.358 163.264C360.358 163.264 322.797 172.147 347.057 175.373C357.3 176.738 377.72 176.43 396.74 174.843C412.285 173.537 427.893 170.761 427.893 170.761C427.893 170.761 422.412 173.099 418.447 175.795C380.304 185.783 306.62 181.136 327.832 170.919C345.772 162.285 360.358 163.264 360.358 163.264ZM427.738 200.765C466.512 180.704 448.585 161.425 436.072 164.022C433.005 164.658 431.637 165.208 431.637 165.208C431.637 165.208 432.776 163.432 434.95 162.664C459.705 153.998 478.743 188.221 426.959 201.776C426.959 201.776 427.559 201.242 427.738 200.765Z" fill="#0B6FB6"/>
<path d="M404.362 50C404.362 50 425.835 71.388 383.995 104.277C350.443 130.659 376.344 145.702 383.981 162.888C364.396 145.295 350.024 129.807 359.666 115.392C373.818 94.2326 413.026 83.9737 404.362 50Z" fill="#E11F21"/>
<path d="M364.169 255.127C401.386 257.499 458.539 253.81 459.893 236.276C459.893 236.276 457.291 242.923 429.134 248.202C397.367 254.154 358.188 253.459 334.951 249.645C334.951 249.645 339.708 253.565 364.169 255.127Z" fill="#0B6FB6"/>
<path d="M358.069 322.126C354.558 325.158 350.85 326.86 347.522 326.86C342.772 326.86 340.206 324.025 340.206 319.476C340.206 314.556 342.956 310.959 353.987 310.959H358.068V322.126M367.757 333.009V299.32C367.757 290.714 362.827 285.036 350.941 285.036C344.002 285.036 337.924 286.742 332.984 288.917L334.41 294.881C338.299 293.459 343.334 292.136 348.277 292.136C355.123 292.136 358.069 294.881 358.069 300.556V304.813H354.652C338.016 304.813 330.512 311.243 330.512 320.894C330.512 329.223 335.457 333.957 344.768 333.957C350.754 333.957 355.222 331.497 359.398 327.896L360.156 333.01H367.757V333.009ZM400.089 333.01H388.006L373.464 285.889H384.016L393.04 314.84L395.045 323.547C399.61 310.958 402.839 298.186 404.454 285.889H414.718C411.968 301.405 407.019 318.437 400.089 333.009M446.441 322.126C442.924 325.158 439.209 326.86 435.881 326.86C431.14 326.86 428.567 324.025 428.567 319.476C428.567 314.556 431.323 310.959 442.353 310.959H446.441L446.441 322.126ZM456.128 333.009V299.32C456.128 290.714 451.186 285.036 439.314 285.036C432.37 285.036 426.29 286.742 421.352 288.917L422.776 294.881C426.667 293.459 431.711 292.136 436.649 292.136C443.491 292.136 446.441 294.881 446.441 300.556V304.813H443.018C426.378 304.813 418.877 311.243 418.877 320.894C418.877 329.223 423.818 333.957 433.128 333.957C439.116 333.957 443.583 331.497 447.767 327.896L448.528 333.01H456.128V333.009ZM319.889 341.012C317.127 345.027 312.667 348.203 307.783 350L303 344.395C306.717 342.496 309.905 339.429 311.386 336.572C312.667 334.032 313.198 330.757 313.198 322.926V269.131H323.49V322.189C323.49 332.658 322.649 336.888 319.889 341.012Z" fill="#E11F21"/>
</g>
<defs>
<clipPath id="clip0_6_4">
<rect width="162" height="300" fill="white" transform="translate(303 50)"/>
</clipPath>
</defs>
</svg>
